PathFileType	4	(X/Y/Z)	41_2_21_p1_0-313_filt_butterworth.trc
DataRate	CameraRate	NumFrames	NumMarkers	Units	OrigDataRate	OrigDataStartFrame	OrigNumFrames
59.0	59.0	7	27	m	59.0	117	313
Frame#	Time	RHip			RKnee			RAnkle			RBigToe			RSmallToe			RHeel			LHip			LKnee			LAnkle			LBigToe			LSmallToe			LHeel			Neck			Head			Nose			RShoulder			RElbow			RWrist			RThumb			RIndex			RPinky			LShoulder			LElbow			LWrist			LThumb			LIndex			LPinky			
		X1	Y1	Z1	X2	Y2	Z2	X3	Y3	Z3	X4	Y4	Z4	X5	Y5	Z5	X6	Y6	Z6	X7	Y7	Z7	X8	Y8	Z8	X9	Y9	Z9	X10	Y10	Z10	X11	Y11	Z11	X12	Y12	Z12	X13	Y13	Z13	X14	Y14	Z14	X15	Y15	Z15	X16	Y16	Z16	X17	Y17	Z17	X18	Y18	Z18	X19	Y19	Z19	X20	Y20	Z20	X21	Y21	Z21	X22	Y22	Z22	X23	Y23	Z23	X24	Y24	Z24	X25	Y25	Z25	X26	Y26	Z26	X27	Y27	Z27	
117	1.9830508474576272	0.30155843178743547	0.5385769759847449	-0.1408886999215272	0.29774252811691176	0.4817753957333121	0.2842566809245607	0.3484880891671051	0.6956774767206964	0.7535791440109023	0.3428360630866671	0.5106622789168982	0.7513113302305762	0.39274726957079137	0.5573183581843516	0.7671139546932959	0.34418786492545	0.8008500280832089	0.8436068940444342	0.10824284601619828	0.5327950168158445	-0.14910512910205326	0.11164167343516046	0.5405344456721485	0.2845434652926084	0.1131524701215472	0.7162611351625456	0.748454449263658	0.15207281584541232	0.5230489589138273	0.7336640959754233	0.08740799847067512	0.5325678458664928	0.7420001532529023	0.12482709319475133	0.8247796366195487	0.833902184432029	0.219447608938455	0.541978199658198	-0.6007712993241945	0.26473162309097703	0.3893497026891441	-0.8763408298323138	0.22774644883033043	0.3662791597373462	-0.6947596510198077	0.3729213978403031	0.529792137395908	-0.5319956436503501	0.5554861986898341	0.5401498424251456	-0.3404432133920956	0.616621771226737	0.4239853817551855	-0.12649738854785722	0.48958975969837604	0.41740504987477633	-0.040359981348324414	0.5149911187017462	0.3982021132659496	-0.03220091214882426	0.5683142377939465	0.4062905776192162	-0.017322617590432385	0.06907975958282508	0.5286111136952854	-0.5786891222456807	-0.17029336463312275	0.5757821406042938	-0.4482418394160134	-0.2773901210528187	0.5284873618355992	-0.23307051519830793	-0.21494452019156596	0.48590279175426815	-0.13324317264769533	-0.2250634426174451	0.4832126648655641	-0.11502567581084698	-0.23088659698211964	0.47951086560017314	-0.12631920457975415
118	2.0	0.3014298229850645	0.5382523503484811	-0.14183205488776704	0.2973366322876018	0.48068712860579654	0.2842517825363008	0.3485916174408385	0.6957387319523161	0.754168376950575	0.3427289233063196	0.5147601769729956	0.7533837354332069	0.39297460017603597	0.5578284106343933	0.7667753656897671	0.3442073777151087	0.8011135926919424	0.8445492537217013	0.10808412114163433	0.5327374020772597	-0.14912554969460304	0.11143560703912318	0.5400961867434608	0.28644971471028446	0.11313660936748844	0.7162126407495729	0.748383077146552	0.1520384001142624	0.5230716099038442	0.7337989778636317	0.08741064096595796	0.532621146771625	0.7420170828021795	0.12486865729760896	0.8247993888994187	0.8340140366021924	0.22256318132844713	0.5449621593380087	-0.6004236429811455	0.27106388135278503	0.3917793853692307	-0.8746206370292195	0.229989369249135	0.36326098394594575	-0.6946232797279971	0.375459282638648	0.5313838602859137	-0.528169693133291	0.5553005942811775	0.5413861036018468	-0.33729510746957514	0.6153688390734261	0.4204362402478412	-0.12191467443090932	0.48763495942760327	0.41308062480015656	-0.03808221440858305	0.5092526605251392	0.39833533353884487	-0.031110526433879574	0.566306973132423	0.4005389943985998	-0.016401928228719435	0.06993064223969994	0.5288762671634782	-0.5799723784705542	-0.17036241797985377	0.5757017174156099	-0.4508508213603739	-0.2774316636580376	0.5290002603522196	-0.23582742267609694	-0.2136796896518023	0.48589440593609573	-0.13759201177088995	-0.2251264795448805	0.48249765542202455	-0.11814357088697983	-0.23040700734889802	0.4783073617140452	-0.12998919053023822
119	2.016949152542373	0.30100721143512654	0.5372948865157721	-0.14222420000424293	0.2961533912717775	0.47746340515165503	0.28428578474803284	0.3488248457233517	0.6953424276838165	0.755474241822554	0.34425849373018047	0.5159374304089793	0.7547334935570029	0.39375824542218524	0.5581139820033367	0.7672532911480519	0.3444646243505406	0.8023741845769157	0.8440608995430852	0.10797802341585665	0.5325251414880834	-0.14915634840046485	0.11080637191100644	0.5398729730084835	0.28884550579554547	0.11320634783250372	0.7163794626929532	0.7485461388901176	0.1521377248200855	0.5230534346845768	0.7336009822103098	0.08741562302548873	0.5327088408345673	0.7420609521492786	0.12477146198083353	0.8246921572700971	0.8341361455937937	0.22493445805320336	0.5488499119843393	-0.6003902984480528	0.2764835120594674	0.39513561108596357	-0.871673795917931	0.23232609063300227	0.3615693183303204	-0.6947815185714551	0.37753566844641223	0.5315750354118911	-0.5253452809457358	0.5555538770751989	0.5424155565137594	-0.3337272811337955	0.6140441714873983	0.41546226812912423	-0.1186357126035268	0.4866948759188999	0.411790798230588	-0.03625570763328764	0.504081635225153	0.3981872932469524	-0.030076539078109383	0.5638014980265192	0.3950305941764119	-0.015618936038222073	0.07010064756319208	0.52885258101382	-0.5821051504894706	-0.1704113698472784	0.5756996912694007	-0.45316426940268884	-0.2774589814915893	0.5295428507570643	-0.2391333918404664	-0.21298807655583488	0.48566633417068394	-0.14229971320590082	-0.22516008606929094	0.48214232801362383	-0.12189637158771359	-0.23038137020263433	0.4779804397240255	-0.13332677807699228
120	2.0338983050847457	0.3001436177825354	0.535008171397185	-0.14179594767262566	0.29456702028532367	0.4730132361407367	0.28434837389470896	0.34910541646792703	0.6946135772290717	0.7570033900872595	0.3462077373553939	0.5150034635021372	0.7552356382175742	0.3948150081852622	0.5582041753108317	0.7690981800723824	0.34504194620903905	0.8045034993287233	0.8423822410481334	0.10797839112670633	0.5322151526666485	-0.1492143153811434	0.10976746518960592	0.5396848322007877	0.29086234005903105	0.11339276375275806	0.7167885780775021	0.7491298474985933	0.1522965420264081	0.5230303837243232	0.7335676595835134	0.08742086354147088	0.5327932777344662	0.7421309331763003	0.12456924590196503	0.8243617490197074	0.8340386769843804	0.22697917225250713	0.5520971932779454	-0.6003226730374407	0.2811774278530145	0.397725244661727	-0.8689653583289803	0.235552052205085	0.35998651064864995	-0.6950299080809956	0.378749131302515	0.5314026205821042	-0.5235932038281877	0.5561528490519684	0.5455754296526101	-0.33058479537291785	0.6124868163272611	0.41068071499030645	-0.11661938971224725	0.48608445300714725	0.41450773828114285	-0.03511435045006506	0.5004653413849206	0.39663366993781796	-0.02930994577147371	0.5612435806257627	0.3914213609934204	-0.014893265566038094	0.07042117163059589	0.5288740601242422	-0.584351035635053	-0.17039933329936083	0.5757649351957783	-0.4548661566713515	-0.27743311768131224	0.5298747976333311	-0.24258965561902596	-0.21270336907074625	0.48545877086734357	-0.14549977593648972	-0.22511099164838178	0.4819285240131564	-0.12497901216303234	-0.23065930161700376	0.4781039606667019	-0.1363386556782829
121	2.0508474576271185	0.29916746993598126	0.5320658698306153	-0.14040218240368926	0.29338621925251496	0.469615724134923	0.28440593859133756	0.3492234822969078	0.6942962852392316	0.7582486947410604	0.34693944178468233	0.5125357437105488	0.75476747236471	0.39552791480625843	0.5582135658493816	0.7715336831416233	0.34550515292679745	0.8057915510921859	0.8414994809285714	0.10804205931018804	0.5322945537932116	-0.14927482688561874	0.10870862413201333	0.539825874993654	0.2920180914794216	0.11361108580314105	0.7172867695050001	0.7500054439416953	0.15242255773147678	0.5229763688696535	0.7332963280187609	0.08742193654858736	0.5328380777219542	0.7421782275121386	0.12435574627454882	0.8239934987312812	0.8334447591292965	0.22893132957996296	0.5537927077129204	-0.6002114988851862	0.285272348348457	0.3987999136584003	-0.8676376236431483	0.23937731207747653	0.35853178144950804	-0.6952622986659914	0.37919497550399056	0.5313720081849392	-0.5223311935620454	0.5569377965425845	0.5502706647915833	-0.3284425843419457	0.610968845039146	0.40834308630418004	-0.1150404249961917	0.48565084850632306	0.41904166979701046	-0.03476498036261179	0.49835384712308256	0.39381839826023635	-0.02852128127071597	0.5580849067365264	0.3905765970290215	-0.01315780769427298	0.07186976813976079	0.5290361091077056	-0.5858995391216145	-0.17033759162146112	0.5758487944219018	-0.4561076645370033	-0.2774073707266727	0.5299441555366798	-0.24519757233925576	-0.21251414000713514	0.4855040909616709	-0.14677241060727322	-0.22497901823067762	0.4806693769657024	-0.12645339334308067	-0.23103079197524853	0.47836476195528493	-0.1387048148214047
122	2.067796610169492	0.2985927393866282	0.5300060455028263	-0.138715865837388	0.2929761723662939	0.46836238496920485	0.28443308754870883	0.3488972523083111	0.695893694503099	0.759619861534726	0.3463386195366003	0.5082901852001566	0.7531463586867476	0.395634201914811	0.5581120891846774	0.7730800295351897	0.3453680153257446	0.804874251850466	0.8423190505170552	0.10785589269485676	0.533790175728294	-0.14924805091343035	0.10736641934967574	0.5412572523966694	0.29252880075473625	0.11373035857508698	0.7177026105394564	0.750536310891617	0.1525650997180159	0.5227698003647941	0.7321445648006729	0.0874175942504238	0.5328361741487213	0.7421593104040463	0.12428923273382168	0.8243059203186238	0.8324536587390265	0.23058300183249017	0.5543985250414907	-0.6001603074239981	0.28861439581624326	0.3989506582092386	-0.8675226372376641	0.24295810854603941	0.35816916662299036	-0.6954590589297088	0.3792530070044239	0.5315016740994352	-0.5214707778473	0.5575763075313346	0.5544312082826078	-0.32698264522256254	0.609571402847363	0.40903572135651833	-0.11311779205931644	0.48546524814899145	0.42252927652181616	-0.03498503717976356	0.49664998203522076	0.3935051657443225	-0.026361144040490316	0.5532319086562811	0.39368023308364236	-0.009053028553941456	0.0746649606790632	0.5291383933936944	-0.5867224724715826	-0.1702552588964692	0.5759400366293801	-0.45687694317091765	-0.2774463304329894	0.5298939449488359	-0.24670608320728768	-0.21229118469644512	0.4858003328464021	-0.1473694156812793	-0.22485045848398313	0.4773550486974363	-0.12681454492638913	-0.2311910207539617	0.47832154534737703	-0.13987794915292717
123	2.0847457627118646	0.29840389061861405	0.5293556346156443	-0.1377952274691256	0.29305911604913365	0.46839624224642223	0.2844415247624061	0.3479864045002431	0.7004251698010467	0.7619763851118923	0.34543413249154137	0.5031854152865437	0.75086847981415	0.3951957922431071	0.5578795383797044	0.7730121102063713	0.34485169185145076	0.8028523786272417	0.8436104943812222	0.10695062266790102	0.5373533166150545	-0.1489372903956676	0.10501736976159004	0.544680656346176	0.2929259055150632	0.11374810428645157	0.718126857014925	0.7503699925518337	0.15274793313491525	0.5224448731269964	0.7306359115517702	0.08741365292571907	0.5328144005910732	0.7421145415160117	0.12466073468642602	0.8264221552145466	0.8320080571005699	0.23167332768555787	0.5545155433705993	-0.6001790327540514	0.29141318998010673	0.39887483816265745	-0.8678475387835624	0.24602012285595187	0.3593308349538614	-0.6955686595161379	0.37922065430011304	0.531638198357488	-0.5211047647363306	0.5580972585978121	0.5572366475654168	-0.3253340822100014	0.6083651768127432	0.41096509098493617	-0.11084083753668615	0.48546913262592817	0.42387201064075264	-0.035569279627950874	0.4950188858266718	0.3986008244667406	-0.021922521355965355	0.5466347834177464	0.398844252048266	-0.0032566429183792725	0.07791726309234823	0.529180283537608	-0.5871847134432651	-0.1701675588768874	0.5760645412285951	-0.45717359431521987	-0.2775426088533636	0.5297669992058267	-0.247962419468614	-0.2121040241489901	0.4858224211105624	-0.14837613484254641	-0.22488469363121658	0.47282119851587867	-0.12732546751443619	-0.2307488511166309	0.4771071917958594	-0.14010795753906957
